<svg id="svg" version="1.1" width="400" height="400" viewBox="0 0 400 400" xmlns="http://www.w3.org/2000/svg" xmlns:xlink="http://www.w3.org/1999/xlink" ><g id="svgg"><path id="path0" d="M182.400 19.666 C 176.211 20.180,164.781 21.587,163.400 22.006 C 162.740 22.206,159.590 22.934,156.400 23.625 C 153.210 24.316,149.880 25.107,149.000 25.383 C 148.120 25.659,146.680 26.089,145.800 26.339 C 139.320 28.177,129.452 31.688,128.620 32.451 C 128.411 32.643,127.995 32.800,127.695 32.800 C 127.114 32.800,113.017 39.667,110.000 41.420 C 104.497 44.616,102.345 45.936,100.000 47.551 C 97.010 49.610,90.297 54.478,90.000 54.802 C 89.890 54.921,88.859 55.758,87.708 56.661 C 81.968 61.168,65.597 77.026,60.973 82.561 C 59.888 83.859,58.816 85.119,58.592 85.361 C 58.247 85.732,56.418 87.988,54.515 90.388 C 42.561 105.473,31.620 127.153,26.350 146.200 C 26.106 147.080,25.760 148.250,25.580 148.800 C 25.155 150.098,23.407 157.519,22.801 160.600 C 21.911 165.118,21.665 166.604,21.212 170.200 C 20.963 172.180,20.590 175.060,20.382 176.600 C 18.538 190.296,19.069 212.740,21.607 228.400 C 23.014 237.081,23.748 240.341,26.785 251.400 C 27.524 254.091,30.427 262.386,31.474 264.800 C 31.808 265.570,32.228 266.560,32.407 267.000 C 43.165 293.411,64.515 321.139,87.947 339.130 C 97.425 346.407,104.202 350.928,113.400 356.109 C 124.323 362.261,140.314 368.444,153.400 371.576 C 155.380 372.050,157.630 372.600,158.400 372.798 C 159.860 373.174,161.497 373.466,165.200 374.010 C 166.410 374.188,170.460 374.824,174.200 375.424 C 180.462 376.428,182.156 376.529,195.600 376.701 C 210.677 376.892,212.690 376.780,223.800 375.128 C 234.930 373.474,236.229 373.259,238.000 372.780 C 238.770 372.572,241.020 372.025,243.000 371.565 C 280.161 362.921,323.402 333.263,343.346 302.742 L 344.037 301.684 341.580 302.534 C 338.560 303.577,338.238 303.306,337.875 299.420 C 337.069 290.792,331.519 287.633,315.800 286.856 C 307.389 286.440,303.372 285.210,298.517 281.564 C 296.368 279.950,295.763 279.713,295.533 280.398 C 295.460 280.617,294.500 281.126,293.400 281.528 C 291.054 282.387,289.154 283.555,285.645 286.294 L 283.090 288.289 281.245 287.820 C 279.718 287.431,279.071 286.942,277.486 284.975 C 275.092 282.004,275.330 282.058,271.886 283.704 C 266.940 286.070,265.899 286.483,262.400 287.467 C 252.128 290.356,235.593 290.680,227.125 288.158 C 225.000 287.526,223.537 287.446,222.980 287.932 C 222.771 288.114,220.890 288.944,218.800 289.776 C 215.078 291.258,214.181 291.642,209.489 293.758 C 208.218 294.331,207.048 294.800,206.889 294.801 C 206.541 294.802,199.291 297.847,198.305 298.406 C 197.923 298.623,197.383 298.801,197.105 298.803 C 195.520 298.811,194.358 300.238,195.127 301.234 C 197.305 304.057,204.058 318.657,205.195 323.000 C 205.909 325.730,206.171 325.892,207.008 324.123 C 209.922 317.965,214.161 319.102,218.016 327.076 C 218.887 328.878,219.600 330.622,219.600 330.953 C 219.600 331.283,219.780 331.664,220.000 331.800 C 220.741 332.258,220.472 338.219,219.626 340.089 C 219.201 341.030,218.526 342.660,218.126 343.710 C 215.826 349.760,211.355 352.988,203.901 353.979 C 202.197 354.206,200.487 354.570,200.101 354.787 C 195.132 357.590,185.308 357.508,179.392 354.614 C 173.980 351.966,167.600 344.203,167.600 340.265 C 167.600 339.758,167.220 337.646,166.756 335.572 C 166.053 332.435,165.904 330.386,165.871 323.400 C 165.831 315.134,165.936 314.083,167.448 307.600 C 169.609 298.329,174.461 291.153,180.283 288.617 C 181.778 287.966,184.672 286.661,186.715 285.717 C 188.759 284.773,190.518 284.000,190.624 284.000 C 190.730 284.000,192.388 283.271,194.309 282.379 C 205.551 277.159,205.009 277.656,201.978 275.344 C 200.866 274.496,199.448 272.992,198.825 272.001 C 197.151 269.335,193.600 262.235,193.600 261.552 C 193.600 261.226,193.443 260.789,193.251 260.580 C 193.058 260.371,192.607 258.702,192.247 256.872 C 191.722 254.207,191.254 253.062,189.896 251.121 C 188.963 249.788,188.020 248.406,187.800 248.050 C 187.580 247.695,187.040 246.866,186.600 246.210 C 186.160 245.554,185.620 244.709,185.400 244.333 C 179.597 234.407,179.619 234.438,178.077 234.190 C 177.264 234.059,175.700 233.777,174.600 233.564 C 173.500 233.351,171.610 232.987,170.400 232.756 C 169.190 232.524,167.480 232.178,166.600 231.987 C 165.720 231.796,164.010 231.433,162.800 231.180 C 160.732 230.749,157.045 229.738,153.400 228.604 C 152.520 228.330,150.450 227.710,148.800 227.227 C 147.150 226.744,145.440 226.192,145.000 226.000 C 144.560 225.808,142.144 224.914,139.632 224.012 C 134.990 222.346,134.149 222.003,129.682 219.955 C 128.297 219.320,127.084 218.800,126.985 218.800 C 126.764 218.800,119.689 215.284,117.082 213.878 C 116.027 213.310,114.855 212.462,114.477 211.995 L 113.789 211.146 102.595 211.613 C 96.438 211.869,89.701 212.197,87.624 212.340 L 83.848 212.600 83.181 215.200 C 80.423 225.953,73.757 232.874,63.742 235.384 C 59.874 236.353,56.312 236.207,54.400 235.000 C 53.529 234.450,52.715 234.000,52.592 234.000 C 51.939 234.000,50.000 232.148,50.000 231.525 C 50.000 230.896,50.361 230.800,52.724 230.800 C 63.384 230.800,68.673 215.273,63.965 197.800 C 63.728 196.920,63.438 195.703,63.321 195.095 C 63.204 194.487,62.949 193.892,62.754 193.771 C 62.559 193.651,62.400 193.243,62.400 192.864 C 62.400 191.177,58.517 183.251,56.161 180.127 C 55.632 179.426,55.200 178.705,55.200 178.524 C 55.200 177.881,50.080 173.275,48.551 172.543 C 45.492 171.078,41.196 171.484,37.319 173.605 C 34.295 175.260,33.988 175.349,33.387 174.753 C 31.846 173.224,35.034 166.186,38.941 162.491 C 46.575 155.271,55.311 156.702,65.095 166.776 C 67.791 169.552,68.180 169.237,67.417 164.896 C 65.698 155.119,61.188 149.875,53.009 148.143 C 49.797 147.462,49.903 147.519,50.233 146.657 C 51.000 144.660,65.502 145.993,68.970 148.379 C 70.294 149.290,71.215 149.569,73.420 149.727 C 77.521 150.020,78.381 150.302,80.769 152.135 C 89.474 158.819,91.141 168.095,87.778 191.138 C 87.413 193.640,87.269 195.822,87.458 196.001 C 87.773 196.300,94.916 195.840,105.845 194.816 C 108.289 194.587,111.103 194.400,112.097 194.400 C 113.700 194.400,114.029 194.238,114.994 192.973 C 116.503 190.993,121.183 186.316,125.000 182.971 C 140.379 169.495,158.699 161.317,181.800 157.615 C 183.340 157.368,185.601 156.994,186.824 156.783 C 188.047 156.572,189.597 156.400,190.268 156.400 C 190.939 156.400,192.188 155.921,193.044 155.335 C 203.861 147.929,202.527 148.147,204.904 153.400 L 205.809 155.400 210.404 155.653 C 218.935 156.122,222.589 156.422,225.285 156.873 C 228.387 157.393,228.660 157.264,230.468 154.422 C 233.729 149.297,228.426 137.046,220.826 132.144 C 218.811 130.845,216.537 130.768,204.200 131.580 C 200.900 131.797,196.310 132.076,194.000 132.199 C 191.690 132.322,187.100 132.592,183.800 132.798 C 180.500 133.004,173.840 133.367,169.000 133.605 C 164.160 133.842,158.310 134.208,156.000 134.419 C 153.690 134.630,150.630 134.799,149.200 134.796 C 147.770 134.792,144.080 134.976,141.000 135.204 C 135.447 135.615,112.041 136.982,103.200 137.410 C 100.670 137.533,98.026 137.722,97.324 137.830 C 89.842 138.985,95.961 133.807,105.810 130.649 C 107.784 130.016,109.670 129.408,110.000 129.299 C 110.330 129.189,111.230 128.956,112.000 128.780 C 112.770 128.604,114.570 128.167,116.000 127.809 C 117.430 127.450,120.580 126.808,123.000 126.381 C 129.736 125.194,134.334 124.623,148.800 123.173 C 151.330 122.919,159.970 122.622,168.000 122.512 C 185.182 122.276,184.186 122.528,183.881 118.497 C 183.609 114.904,183.376 114.684,180.200 115.018 C 178.880 115.157,176.000 115.424,173.800 115.612 C 171.600 115.800,168.900 116.230,167.800 116.567 C 161.584 118.472,161.280 118.433,161.776 115.786 C 162.098 114.072,162.976 113.181,167.562 109.913 L 170.925 107.518 174.875 107.300 C 179.492 107.046,179.531 107.018,177.821 105.195 C 174.614 101.776,173.843 101.262,170.600 100.375 C 168.840 99.893,166.140 99.144,164.600 98.709 C 163.060 98.275,161.080 97.750,160.200 97.542 C 159.320 97.334,157.970 97.015,157.200 96.834 C 135.749 91.781,124.439 90.441,100.600 90.127 C 83.292 89.899,74.201 90.400,62.611 92.219 C 59.016 92.784,58.077 92.618,58.507 91.497 C 58.699 90.999,65.403 88.577,72.400 86.479 C 77.529 84.941,88.747 82.450,92.800 81.950 C 94.450 81.746,97.330 81.387,99.200 81.151 C 105.506 80.356,130.156 80.255,139.045 80.987 C 148.874 81.798,155.832 82.722,158.600 83.584 C 159.260 83.790,160.790 84.012,162.000 84.079 L 164.200 84.200 164.200 82.889 C 164.200 81.811,164.458 81.421,165.657 80.689 C 166.458 80.200,168.410 78.900,169.995 77.800 C 171.579 76.700,174.884 74.536,177.338 72.990 C 180.450 71.030,181.837 69.922,181.923 69.328 C 181.991 68.853,182.434 68.370,182.923 68.237 C 183.405 68.106,184.622 67.234,185.628 66.299 C 191.428 60.906,200.272 55.720,207.200 53.651 C 215.386 51.205,228.600 51.647,234.443 54.561 C 235.147 54.913,236.019 55.200,236.381 55.200 C 236.744 55.200,237.211 55.350,237.420 55.533 C 237.629 55.715,238.930 56.342,240.311 56.926 C 250.715 61.321,255.892 67.825,256.610 77.400 C 256.946 81.875,256.782 81.721,261.391 81.913 C 265.253 82.075,266.000 82.381,266.000 83.806 C 266.000 84.923,266.673 85.203,269.333 85.190 C 276.444 85.157,283.551 80.486,289.099 72.200 C 293.067 66.275,300.843 59.863,306.327 57.997 L 309.111 57.049 307.780 56.024 C 301.554 51.229,290.070 43.200,289.437 43.200 C 289.363 43.200,287.524 42.190,285.351 40.957 C 282.020 39.065,272.537 34.342,269.800 33.212 C 269.360 33.030,268.329 32.587,267.509 32.226 C 264.149 30.750,255.344 27.686,250.800 26.412 C 249.810 26.134,248.550 25.756,248.000 25.572 C 247.450 25.387,244.930 24.768,242.400 24.197 C 239.870 23.625,236.360 22.817,234.600 22.400 C 223.210 19.705,197.901 18.380,182.400 19.666 M321.985 70.203 C 321.727 70.862,321.293 72.030,321.020 72.800 C 320.373 74.626,319.364 74.750,317.151 73.274 C 310.341 68.733,301.847 71.517,294.349 80.748 C 291.336 84.458,288.500 87.191,285.688 89.097 C 283.012 90.912,283.089 91.062,287.417 92.468 C 291.265 93.719,295.581 95.369,297.200 96.209 C 297.750 96.495,298.920 97.038,299.800 97.417 C 309.346 101.527,327.200 113.312,327.200 115.504 C 327.200 117.440,316.986 126.071,316.200 124.799 C 314.954 122.783,295.102 107.200,293.780 107.200 C 293.639 107.200,293.046 106.869,292.462 106.464 C 288.957 104.033,278.301 99.138,273.200 97.615 C 271.550 97.122,269.840 96.577,269.400 96.403 C 266.668 95.327,260.011 94.651,258.900 95.338 C 257.848 95.989,258.508 101.179,259.841 102.745 C 260.688 103.739,266.136 108.000,266.561 108.000 C 266.828 108.000,269.209 109.586,269.600 110.024 C 269.710 110.148,272.860 111.757,276.600 113.602 C 295.353 122.848,308.071 136.424,317.009 156.735 L 318.476 160.069 318.882 170.378 C 319.435 184.410,318.314 203.646,316.480 211.600 C 316.251 212.590,315.864 214.480,315.618 215.800 C 312.477 232.692,305.515 248.126,296.644 257.863 C 293.174 261.672,292.837 261.545,303.400 260.403 C 308.069 259.899,330.022 259.885,332.833 260.385 C 334.025 260.597,337.160 261.149,339.800 261.611 C 342.440 262.073,345.950 262.819,347.600 263.268 C 349.250 263.718,351.357 264.275,352.281 264.506 C 354.637 265.095,354.655 265.511,352.558 270.960 C 349.628 278.570,348.883 279.357,346.000 277.885 C 345.450 277.604,344.190 277.130,343.200 276.831 C 342.210 276.532,340.410 275.971,339.200 275.584 C 337.990 275.197,336.280 274.685,335.400 274.444 C 334.520 274.204,332.360 273.576,330.600 273.048 C 328.840 272.520,326.050 271.877,324.400 271.620 C 322.750 271.362,320.410 270.976,319.200 270.762 C 315.365 270.082,301.115 269.803,300.024 270.387 L 299.075 270.895 300.637 272.251 C 305.295 276.294,309.021 277.215,322.200 277.583 C 334.267 277.920,335.311 278.092,341.200 280.725 C 344.769 282.320,349.509 287.656,350.216 290.872 L 350.487 292.105 351.429 290.952 C 351.947 290.319,352.378 289.661,352.386 289.492 C 352.394 289.323,352.882 288.423,353.470 287.492 C 356.535 282.646,361.985 271.653,364.522 265.200 C 369.538 252.444,372.166 242.625,375.013 226.000 C 377.923 209.009,377.648 183.411,374.368 166.000 C 374.140 164.790,373.769 162.810,373.544 161.600 C 373.107 159.250,372.605 156.904,371.918 154.000 C 371.308 151.421,368.847 142.569,368.443 141.501 C 368.256 141.006,367.887 139.880,367.625 139.000 C 367.362 138.120,366.995 137.040,366.808 136.600 C 366.622 136.160,365.436 133.190,364.173 130.000 C 358.462 115.576,350.899 102.587,339.835 88.200 C 336.923 84.414,331.495 78.257,327.142 73.803 L 322.454 69.007 321.985 70.203 " stroke="none" fill="#fa0404" fill-rule="evenodd"></path><path id="path1" d="M186.595 0.408 C 186.432 0.671,184.905 0.819,182.664 0.789 C 180.649 0.761,177.200 0.943,175.000 1.192 C 165.796 2.235,164.076 2.448,161.600 2.852 C 160.170 3.085,158.460 3.434,157.800 3.627 C 157.140 3.820,154.440 4.448,151.800 5.022 C 149.160 5.596,146.415 6.231,145.700 6.433 C 144.985 6.635,143.815 6.956,143.100 7.146 C 140.001 7.971,138.146 8.513,137.400 8.812 C 136.960 8.989,136.240 9.220,135.800 9.326 C 134.929 9.535,128.295 11.845,127.000 12.389 C 126.560 12.574,125.390 13.027,124.400 13.396 C 122.259 14.193,120.630 14.890,117.400 16.393 C 116.080 17.007,113.920 18.002,112.600 18.605 C 108.092 20.662,102.102 23.788,101.420 24.438 C 101.211 24.637,100.782 24.800,100.468 24.800 C 100.153 24.800,99.019 25.430,97.947 26.200 C 96.875 26.970,95.896 27.600,95.771 27.600 C 95.646 27.600,94.759 28.140,93.800 28.800 C 92.841 29.460,91.950 30.000,91.820 30.000 C 91.168 30.000,77.641 39.738,76.800 40.813 C 76.690 40.953,76.301 41.233,75.935 41.434 C 75.569 41.635,74.579 42.437,73.735 43.215 C 72.891 43.993,71.764 44.931,71.230 45.301 C 67.437 47.929,52.073 63.205,46.593 69.797 C 45.497 71.116,44.367 72.442,44.082 72.744 C 41.195 75.805,30.000 90.982,30.000 91.835 C 30.000 91.956,29.460 92.841,28.800 93.800 C 28.140 94.759,27.600 95.678,27.600 95.841 C 27.600 96.004,27.355 96.421,27.056 96.769 C 26.582 97.318,25.570 99.088,23.605 102.800 C 23.314 103.350,22.926 104.070,22.743 104.400 C 22.002 105.736,17.638 114.734,16.825 116.600 C 16.346 117.700,15.582 119.410,15.127 120.400 C 14.009 122.830,13.792 123.385,12.780 126.400 C 12.300 127.830,11.748 129.171,11.553 129.380 C 11.359 129.589,11.200 130.253,11.200 130.856 C 11.200 131.459,11.037 132.054,10.837 132.177 C 10.637 132.301,10.169 133.436,9.797 134.701 C 9.425 135.965,8.979 137.360,8.806 137.800 C 8.401 138.829,7.354 142.579,6.459 146.200 C 6.241 147.080,5.790 148.880,5.456 150.200 C 4.351 154.559,3.390 159.335,2.999 162.400 C 2.872 163.390,2.594 165.550,2.379 167.200 C -0.357 188.251,-0.355 207.862,2.386 229.000 C 3.104 234.534,3.585 237.359,4.771 243.000 C 5.069 244.415,6.548 250.045,7.662 254.000 C 7.878 254.770,8.147 255.850,8.258 256.400 C 8.369 256.950,8.605 257.760,8.781 258.200 C 8.958 258.640,9.602 260.530,10.212 262.400 C 10.823 264.270,11.443 265.980,11.589 266.200 C 11.736 266.420,12.100 267.410,12.398 268.400 C 12.695 269.390,13.088 270.371,13.270 270.580 C 13.451 270.789,13.600 271.189,13.600 271.468 C 13.600 271.748,14.066 273.017,14.635 274.288 C 15.205 275.560,16.033 277.410,16.476 278.400 C 19.406 284.946,24.098 293.924,27.661 299.800 C 28.861 301.780,30.103 303.841,30.422 304.380 C 31.105 305.537,31.175 305.639,32.995 308.103 C 33.768 309.150,34.400 310.089,34.400 310.190 C 34.400 310.551,41.734 320.154,44.899 323.937 C 53.951 334.757,64.250 344.844,75.212 353.626 C 81.776 358.885,82.725 359.600,83.143 359.600 C 83.358 359.600,83.593 359.758,83.667 359.952 C 83.805 360.315,93.754 367.200,94.141 367.200 C 94.262 367.200,95.224 367.784,96.280 368.497 C 97.336 369.210,99.100 370.268,100.200 370.846 C 101.300 371.425,103.370 372.553,104.800 373.352 C 107.454 374.835,112.767 377.458,116.000 378.881 C 116.990 379.317,118.492 380.017,119.338 380.437 C 120.184 380.856,121.131 381.200,121.443 381.200 C 121.755 381.200,122.323 381.378,122.705 381.595 C 123.823 382.229,128.066 384.000,128.469 384.000 C 128.672 384.000,129.584 384.360,130.494 384.800 C 131.405 385.240,132.479 385.600,132.881 385.600 C 133.282 385.600,133.923 385.762,134.305 385.961 C 134.687 386.160,135.810 386.545,136.800 386.818 C 137.790 387.091,140.040 387.751,141.800 388.285 C 143.560 388.820,145.553 389.424,146.228 389.628 C 146.904 389.833,147.838 390.000,148.305 390.000 C 148.771 390.000,149.249 390.156,149.367 390.347 C 149.485 390.538,150.351 390.805,151.291 390.941 C 152.231 391.076,153.900 391.381,155.000 391.617 C 156.100 391.853,158.170 392.202,159.600 392.391 C 161.030 392.581,163.280 392.937,164.600 393.183 C 184.189 396.832,212.556 396.903,231.000 393.348 C 232.760 393.009,235.370 392.569,236.800 392.371 C 238.230 392.172,240.300 391.817,241.400 391.583 C 242.500 391.348,244.030 391.064,244.800 390.953 C 245.570 390.842,246.560 390.593,247.000 390.401 C 247.440 390.209,249.037 389.756,250.549 389.395 C 252.061 389.033,253.681 388.591,254.149 388.411 C 254.617 388.231,255.810 387.859,256.800 387.584 C 259.287 386.894,263.635 385.558,264.600 385.188 C 265.040 385.019,266.030 384.663,266.800 384.396 C 269.443 383.482,273.400 381.856,273.780 381.528 C 273.989 381.348,274.396 381.200,274.684 381.200 C 275.907 381.200,295.662 371.433,296.398 370.465 C 296.509 370.319,297.140 369.936,297.800 369.614 C 300.252 368.420,313.653 359.436,316.667 356.967 C 317.603 356.199,319.619 354.625,321.147 353.468 C 322.674 352.310,324.731 350.652,325.717 349.782 C 326.703 348.912,328.295 347.577,329.255 346.816 C 331.644 344.920,345.938 330.578,347.410 328.600 C 348.064 327.720,349.170 326.370,349.867 325.600 C 350.565 324.830,351.551 323.660,352.059 323.000 C 352.567 322.340,353.228 321.546,353.527 321.236 C 353.826 320.926,354.509 320.026,355.045 319.236 C 355.582 318.446,356.828 316.720,357.815 315.400 C 359.629 312.976,364.989 305.269,365.886 303.797 C 366.153 303.359,367.214 301.650,368.244 300.000 C 372.211 293.644,377.307 284.041,379.759 278.300 C 380.112 277.475,380.655 276.215,380.967 275.500 C 381.279 274.785,381.837 273.390,382.207 272.400 C 382.577 271.410,383.112 270.060,383.397 269.400 C 384.757 266.251,385.246 264.840,387.138 258.600 C 387.605 257.060,388.370 254.540,388.839 253.000 C 389.702 250.166,390.134 248.462,390.818 245.200 C 391.025 244.210,391.375 242.590,391.595 241.600 C 395.945 221.994,397.355 192.028,394.784 173.800 C 394.567 172.260,394.322 170.268,394.240 169.373 C 394.157 168.478,393.899 166.768,393.666 165.573 C 393.433 164.378,393.040 162.050,392.793 160.400 C 392.546 158.750,392.195 156.770,392.013 156.000 C 391.005 151.745,390.800 150.699,390.800 149.818 C 390.800 149.284,390.620 148.736,390.400 148.600 C 390.180 148.464,390.000 147.832,390.000 147.195 C 390.000 146.559,389.832 145.624,389.626 145.119 C 389.420 144.613,388.599 142.040,387.801 139.400 C 387.003 136.760,386.202 134.240,386.021 133.800 C 385.839 133.360,385.459 132.190,385.176 131.200 C 384.893 130.210,384.512 129.229,384.330 129.020 C 384.149 128.811,384.000 128.237,384.000 127.744 C 384.000 127.251,383.833 126.744,383.629 126.618 C 383.425 126.492,383.043 125.716,382.780 124.894 C 382.516 124.072,381.873 122.450,381.350 121.288 C 380.828 120.127,380.400 118.922,380.400 118.612 C 380.400 118.301,380.220 117.936,380.000 117.800 C 379.780 117.664,379.600 117.218,379.600 116.810 C 379.600 116.401,379.465 116.007,379.300 115.933 C 379.135 115.860,378.344 114.450,377.543 112.800 C 374.770 107.093,373.137 103.798,372.785 103.200 C 369.976 98.435,369.313 97.272,369.123 96.777 C 368.742 95.785,359.552 82.208,359.165 82.067 C 358.964 81.993,358.800 81.764,358.800 81.556 C 358.800 81.015,353.923 74.820,348.000 67.838 C 343.787 62.872,333.515 52.583,327.990 47.795 C 323.412 43.827,312.214 35.200,311.641 35.200 C 311.435 35.200,311.207 35.055,311.133 34.878 C 310.974 34.493,303.405 29.200,303.015 29.200 C 302.866 29.200,301.992 28.687,301.072 28.060 C 300.152 27.433,298.576 26.463,297.568 25.906 C 294.440 24.174,293.807 23.807,293.600 23.600 C 293.358 23.358,281.725 17.601,279.200 16.474 C 275.044 14.619,272.919 13.712,271.600 13.230 C 270.830 12.949,269.840 12.566,269.400 12.379 C 268.960 12.192,267.160 11.552,265.400 10.956 C 263.640 10.361,262.029 9.722,261.820 9.537 C 261.611 9.352,260.947 9.200,260.344 9.200 C 259.741 9.200,259.148 9.040,259.027 8.844 C 258.906 8.649,258.221 8.394,257.504 8.280 C 256.787 8.165,253.770 7.404,250.800 6.589 C 245.349 5.093,243.840 4.724,240.200 4.000 C 239.100 3.781,237.390 3.415,236.400 3.186 C 234.694 2.791,233.470 2.628,224.400 1.585 C 213.517 0.333,187.149 -0.488,186.595 0.408 M213.200 19.605 C 223.720 20.476,229.852 21.277,234.600 22.400 C 236.360 22.817,239.870 23.625,242.400 24.197 C 244.930 24.768,247.450 25.387,248.000 25.572 C 248.550 25.756,249.810 26.134,250.800 26.412 C 255.344 27.686,264.149 30.750,267.509 32.226 C 268.329 32.587,269.360 33.030,269.800 33.212 C 272.537 34.342,282.020 39.065,285.351 40.957 C 287.524 42.190,289.363 43.200,289.437 43.200 C 290.073 43.200,301.306 51.055,307.885 56.100 C 309.158 57.076,309.660 57.200,312.359 57.204 C 316.956 57.211,323.843 60.034,324.059 62.000 C 324.203 63.322,323.933 64.700,323.134 66.714 C 322.673 67.877,322.364 68.897,322.448 68.981 C 329.445 75.992,336.126 83.377,339.835 88.200 C 350.899 102.587,358.462 115.576,364.173 130.000 C 365.436 133.190,366.622 136.160,366.808 136.600 C 366.995 137.040,367.362 138.120,367.625 139.000 C 367.887 139.880,368.256 141.006,368.443 141.501 C 369.593 144.542,372.506 156.021,373.544 161.600 C 373.769 162.810,374.140 164.790,374.368 166.000 C 377.648 183.411,377.923 209.009,375.013 226.000 C 372.166 242.625,369.538 252.444,364.522 265.200 C 361.985 271.653,356.535 282.646,353.470 287.492 C 352.882 288.423,352.400 289.294,352.400 289.429 C 352.400 289.564,352.029 290.145,351.577 290.721 C 350.834 291.665,350.779 292.105,351.023 295.216 L 351.293 298.665 349.946 299.302 C 349.206 299.653,347.610 300.312,346.400 300.768 C 344.378 301.529,343.946 301.938,341.063 305.813 C 317.421 337.598,279.386 363.101,243.000 371.565 C 241.020 372.025,238.770 372.572,238.000 372.780 C 236.229 373.259,234.930 373.474,223.800 375.128 C 212.690 376.780,210.677 376.892,195.600 376.701 C 182.156 376.529,180.462 376.428,174.200 375.424 C 170.460 374.824,166.410 374.188,165.200 374.010 C 161.497 373.466,159.860 373.174,158.400 372.798 C 157.630 372.600,155.380 372.050,153.400 371.576 C 140.314 368.444,124.323 362.261,113.400 356.109 C 104.202 350.928,97.425 346.407,87.947 339.130 C 64.515 321.139,43.165 293.411,32.407 267.000 C 32.228 266.560,31.808 265.570,31.474 264.800 C 30.427 262.386,27.524 254.091,26.785 251.400 C 23.748 240.341,23.014 237.081,21.607 228.400 C 19.069 212.740,18.538 190.296,20.382 176.600 C 20.590 175.060,20.963 172.180,21.212 170.200 C 21.665 166.604,21.911 165.118,22.801 160.600 C 23.407 157.519,25.155 150.098,25.580 148.800 C 25.760 148.250,26.106 147.080,26.350 146.200 C 31.620 127.153,42.561 105.473,54.515 90.388 C 56.418 87.988,58.247 85.732,58.592 85.361 C 58.816 85.119,59.888 83.859,60.973 82.561 C 65.597 77.026,81.968 61.168,87.708 56.661 C 88.859 55.758,89.890 54.921,90.000 54.802 C 90.297 54.478,97.010 49.610,100.000 47.551 C 102.345 45.936,104.497 44.616,110.000 41.420 C 113.017 39.667,127.114 32.800,127.695 32.800 C 127.995 32.800,128.411 32.643,128.620 32.451 C 129.452 31.688,139.320 28.177,145.800 26.339 C 146.680 26.089,148.120 25.659,149.000 25.383 C 149.880 25.107,153.210 24.316,156.400 23.625 C 159.590 22.934,162.740 22.206,163.400 22.006 C 164.781 21.587,176.211 20.180,182.400 19.666 C 188.496 19.160,207.376 19.123,213.200 19.605 M195.600 72.953 C 189.705 75.075,181.790 78.857,182.260 79.327 C 182.663 79.730,208.716 79.660,208.966 79.255 C 209.224 78.837,206.927 76.670,203.379 73.984 C 200.327 71.674,199.468 71.560,195.600 72.953 " stroke="none" fill="#f9f8f8" fill-rule="evenodd"></path><path id="path2" d="M0.012 95.500 C 0.023 181.222,0.246 202.772,0.924 183.800 C 1.127 178.132,1.478 174.125,2.379 167.200 C 2.593 165.550,2.872 163.390,2.999 162.400 C 3.390 159.335,4.351 154.559,5.456 150.200 C 5.790 148.880,6.244 147.080,6.465 146.200 C 7.516 142.007,8.355 139.009,8.815 137.800 C 8.983 137.360,9.425 135.965,9.797 134.701 C 10.169 133.436,10.637 132.301,10.837 132.177 C 11.037 132.054,11.200 131.459,11.200 130.856 C 11.200 130.253,11.359 129.589,11.553 129.380 C 11.748 129.171,12.300 127.830,12.780 126.400 C 13.792 123.385,14.009 122.830,15.127 120.400 C 15.582 119.410,16.346 117.700,16.825 116.600 C 17.638 114.734,22.002 105.736,22.743 104.400 C 22.926 104.070,23.314 103.350,23.605 102.800 C 25.570 99.088,26.582 97.318,27.056 96.769 C 27.355 96.421,27.600 96.004,27.600 95.841 C 27.600 95.678,28.140 94.759,28.800 93.800 C 29.460 92.841,30.000 91.956,30.000 91.835 C 30.000 90.982,41.195 75.805,44.082 72.744 C 44.367 72.442,45.497 71.116,46.593 69.797 C 52.073 63.205,67.437 47.929,71.230 45.301 C 71.764 44.931,72.891 43.993,73.735 43.215 C 74.579 42.437,75.569 41.635,75.935 41.434 C 76.301 41.233,76.690 40.953,76.800 40.813 C 77.641 39.738,91.168 30.000,91.820 30.000 C 91.950 30.000,92.841 29.460,93.800 28.800 C 94.759 28.140,95.646 27.600,95.771 27.600 C 95.896 27.600,96.875 26.970,97.947 26.200 C 99.019 25.430,100.153 24.800,100.468 24.800 C 100.782 24.800,101.211 24.637,101.420 24.438 C 102.102 23.788,108.092 20.662,112.600 18.605 C 113.920 18.002,116.080 17.007,117.400 16.393 C 120.630 14.890,122.259 14.193,124.400 13.396 C 125.390 13.027,126.560 12.574,127.000 12.389 C 128.295 11.845,134.929 9.535,135.800 9.326 C 136.240 9.220,136.960 8.989,137.400 8.812 C 138.146 8.513,140.001 7.971,143.100 7.146 C 143.815 6.956,144.985 6.635,145.700 6.433 C 146.415 6.231,149.160 5.596,151.800 5.022 C 154.440 4.448,157.140 3.820,157.800 3.627 C 158.460 3.434,160.170 3.085,161.600 2.852 C 164.076 2.448,165.796 2.235,175.000 1.192 C 177.200 0.943,180.649 0.761,182.664 0.789 C 184.843 0.818,186.434 0.669,186.588 0.419 C 186.768 0.127,158.469 -0.000,93.424 -0.000 L 0.000 0.000 0.012 95.500 M210.000 0.364 C 210.330 0.551,212.940 0.811,215.800 0.941 C 218.660 1.071,222.530 1.358,224.400 1.580 C 226.270 1.801,229.330 2.159,231.200 2.375 C 233.070 2.592,235.410 2.957,236.400 3.186 C 237.390 3.415,239.100 3.781,240.200 4.000 C 243.840 4.724,245.349 5.093,250.800 6.589 C 253.770 7.404,256.787 8.165,257.504 8.280 C 258.221 8.394,258.906 8.649,259.027 8.844 C 259.148 9.040,259.741 9.200,260.344 9.200 C 260.947 9.200,261.611 9.352,261.820 9.537 C 262.029 9.722,263.640 10.361,265.400 10.956 C 267.160 11.552,268.960 12.192,269.400 12.379 C 269.840 12.566,270.830 12.949,271.600 13.230 C 272.919 13.712,275.044 14.619,279.200 16.474 C 281.725 17.601,293.358 23.358,293.600 23.600 C 293.807 23.807,294.440 24.174,297.568 25.906 C 298.576 26.463,300.152 27.433,301.072 28.060 C 301.992 28.687,302.866 29.200,303.015 29.200 C 303.405 29.200,310.974 34.493,311.133 34.878 C 311.207 35.055,311.435 35.200,311.641 35.200 C 312.214 35.200,323.412 43.827,327.990 47.795 C 333.515 52.583,343.787 62.872,348.000 67.838 C 353.923 74.820,358.800 81.015,358.800 81.556 C 358.800 81.764,358.964 81.993,359.165 82.067 C 359.552 82.208,368.742 95.785,369.123 96.777 C 369.313 97.272,369.976 98.435,372.785 103.200 C 373.137 103.798,374.770 107.093,377.543 112.800 C 378.344 114.450,379.135 115.860,379.300 115.933 C 379.465 116.007,379.600 116.401,379.600 116.810 C 379.600 117.218,379.780 117.664,380.000 117.800 C 380.220 117.936,380.400 118.301,380.400 118.612 C 380.400 118.922,380.828 120.127,381.350 121.288 C 381.873 122.450,382.516 124.072,382.780 124.894 C 383.043 125.716,383.425 126.492,383.629 126.618 C 383.833 126.744,384.000 127.251,384.000 127.744 C 384.000 128.237,384.149 128.811,384.330 129.020 C 384.512 129.229,384.893 130.210,385.176 131.200 C 385.459 132.190,385.839 133.360,386.021 133.800 C 386.202 134.240,387.003 136.760,387.801 139.400 C 388.599 142.040,389.420 144.613,389.626 145.119 C 389.832 145.624,390.000 146.559,390.000 147.195 C 390.000 147.832,390.180 148.464,390.400 148.600 C 390.620 148.736,390.800 149.284,390.800 149.818 C 390.800 150.699,391.005 151.745,392.013 156.000 C 392.195 156.770,392.546 158.750,392.793 160.400 C 393.040 162.050,393.433 164.378,393.666 165.573 C 393.899 166.768,394.157 168.478,394.240 169.373 C 394.322 170.268,394.567 172.260,394.784 173.800 C 397.355 192.028,395.945 221.994,391.595 241.600 C 391.375 242.590,391.025 244.210,390.818 245.200 C 390.134 248.462,389.702 250.166,388.839 253.000 C 388.370 254.540,387.605 257.060,387.138 258.600 C 385.246 264.840,384.757 266.251,383.397 269.400 C 383.112 270.060,382.577 271.410,382.207 272.400 C 381.837 273.390,381.258 274.830,380.920 275.600 C 380.582 276.370,380.038 277.630,379.712 278.400 C 377.380 283.903,372.191 293.675,368.244 300.000 C 367.214 301.650,366.153 303.359,365.886 303.797 C 364.989 305.269,359.629 312.976,357.815 315.400 C 356.828 316.720,355.582 318.446,355.045 319.236 C 354.509 320.026,353.826 320.926,353.527 321.236 C 353.228 321.546,352.567 322.340,352.059 323.000 C 351.551 323.660,350.565 324.830,349.867 325.600 C 349.170 326.370,348.064 327.720,347.410 328.600 C 345.938 330.578,331.644 344.920,329.255 346.816 C 328.295 347.577,326.703 348.912,325.717 349.782 C 324.731 350.652,322.674 352.310,321.147 353.468 C 319.619 354.625,317.603 356.199,316.667 356.967 C 313.653 359.436,300.252 368.420,297.800 369.614 C 297.140 369.936,296.509 370.319,296.398 370.465 C 295.662 371.433,275.907 381.200,274.684 381.200 C 274.396 381.200,273.989 381.348,273.780 381.528 C 273.400 381.856,269.443 383.482,266.800 384.396 C 266.030 384.663,265.040 385.019,264.600 385.188 C 263.635 385.558,259.287 386.894,256.800 387.584 C 255.810 387.859,254.617 388.231,254.149 388.411 C 253.681 388.591,252.061 389.033,250.549 389.395 C 249.037 389.756,247.440 390.209,247.000 390.401 C 246.560 390.593,245.570 390.842,244.800 390.953 C 244.030 391.064,242.500 391.348,241.400 391.583 C 240.300 391.817,238.230 392.172,236.800 392.371 C 235.370 392.569,232.760 393.009,231.000 393.348 C 212.556 396.903,184.189 396.832,164.600 393.183 C 163.280 392.937,161.030 392.581,159.600 392.391 C 158.170 392.202,156.100 391.853,155.000 391.617 C 153.900 391.381,152.231 391.076,151.291 390.941 C 150.351 390.805,149.485 390.538,149.367 390.347 C 149.249 390.156,148.771 390.000,148.305 390.000 C 147.838 390.000,146.904 389.833,146.228 389.628 C 145.553 389.424,143.560 388.820,141.800 388.285 C 140.040 387.751,137.790 387.091,136.800 386.818 C 135.810 386.545,134.687 386.160,134.305 385.961 C 133.923 385.762,133.282 385.600,132.881 385.600 C 132.479 385.600,131.405 385.240,130.494 384.800 C 129.584 384.360,128.672 384.000,128.469 384.000 C 128.066 384.000,123.823 382.229,122.705 381.595 C 122.323 381.378,121.755 381.200,121.443 381.200 C 121.131 381.200,120.184 380.856,119.338 380.437 C 118.492 380.017,116.990 379.317,116.000 378.881 C 112.767 377.458,107.454 374.835,104.800 373.352 C 103.370 372.553,101.300 371.425,100.200 370.846 C 99.100 370.268,97.336 369.210,96.280 368.497 C 95.224 367.784,94.262 367.200,94.141 367.200 C 93.754 367.200,83.805 360.315,83.667 359.952 C 83.593 359.758,83.358 359.600,83.143 359.600 C 82.725 359.600,81.776 358.885,75.212 353.626 C 64.250 344.844,53.951 334.757,44.899 323.937 C 41.734 320.154,34.400 310.551,34.400 310.190 C 34.400 310.089,33.768 309.150,32.995 308.103 C 31.175 305.639,31.105 305.537,30.422 304.380 C 30.103 303.841,28.861 301.780,27.661 299.800 C 24.098 293.924,19.406 284.946,16.476 278.400 C 16.033 277.410,15.205 275.560,14.635 274.288 C 14.066 273.017,13.600 271.748,13.600 271.468 C 13.600 271.189,13.451 270.789,13.270 270.580 C 13.088 270.371,12.695 269.390,12.398 268.400 C 12.100 267.410,11.736 266.420,11.589 266.200 C 11.443 265.980,10.823 264.270,10.212 262.400 C 9.602 260.530,8.958 258.640,8.781 258.200 C 8.605 257.760,8.369 256.950,8.258 256.400 C 8.147 255.850,7.878 254.770,7.662 254.000 C 6.548 250.045,5.069 244.415,4.771 243.000 C 2.600 232.678,1.326 222.526,0.870 211.932 C 0.721 208.485,0.465 205.530,0.300 205.365 C 0.135 205.201,0.000 248.927,0.000 302.533 L 0.000 400.000 200.000 400.000 L 400.000 400.000 400.000 200.000 L 400.000 0.000 304.700 0.012 C 252.156 0.019,209.669 0.177,210.000 0.364 M211.567 52.559 C 203.025 54.197,192.842 59.591,185.628 66.299 C 184.622 67.234,183.405 68.106,182.923 68.237 C 182.434 68.370,181.991 68.853,181.923 69.328 C 181.837 69.922,180.450 71.030,177.338 72.990 C 174.884 74.536,171.579 76.700,169.995 77.800 C 168.410 78.900,166.458 80.200,165.657 80.689 C 164.458 81.421,164.200 81.811,164.200 82.889 L 164.200 84.200 162.000 84.079 C 160.790 84.012,159.260 83.790,158.600 83.584 C 155.832 82.722,148.874 81.798,139.045 80.987 C 130.156 80.255,105.506 80.356,99.200 81.151 C 97.330 81.387,94.450 81.746,92.800 81.950 C 88.747 82.450,77.529 84.941,72.400 86.479 C 65.403 88.577,58.699 90.999,58.507 91.497 C 58.077 92.618,59.016 92.784,62.611 92.219 C 74.201 90.400,83.292 89.899,100.600 90.127 C 123.897 90.434,128.785 90.945,149.800 95.269 C 158.170 96.992,160.098 97.440,164.600 98.709 C 166.140 99.144,168.840 99.893,170.600 100.375 C 173.843 101.262,174.614 101.776,177.821 105.195 C 179.531 107.018,179.492 107.046,174.875 107.300 L 170.925 107.518 167.562 109.913 C 162.976 113.181,162.098 114.072,161.776 115.786 C 161.280 118.433,161.584 118.472,167.800 116.567 C 168.900 116.230,171.600 115.800,173.800 115.612 C 176.000 115.424,178.880 115.157,180.200 115.018 C 183.376 114.684,183.609 114.904,183.881 118.497 C 184.186 122.528,185.182 122.276,168.000 122.512 C 159.970 122.622,151.330 122.919,148.800 123.173 C 134.334 124.623,129.736 125.194,123.000 126.381 C 120.580 126.808,117.430 127.450,116.000 127.809 C 114.570 128.167,112.770 128.604,112.000 128.780 C 111.230 128.956,110.330 129.189,110.000 129.299 C 109.670 129.408,107.784 130.016,105.810 130.649 C 95.961 133.807,89.842 138.985,97.324 137.830 C 98.026 137.722,100.670 137.533,103.200 137.410 C 112.041 136.982,135.447 135.615,141.000 135.204 C 144.080 134.976,147.770 134.792,149.200 134.796 C 150.630 134.799,153.690 134.630,156.000 134.419 C 158.310 134.208,164.160 133.842,169.000 133.605 C 173.840 133.367,180.500 133.004,183.800 132.798 C 187.100 132.592,191.690 132.322,194.000 132.199 C 196.310 132.076,200.900 131.797,204.200 131.580 C 216.537 130.768,218.811 130.845,220.826 132.144 C 228.426 137.046,233.729 149.297,230.468 154.422 C 228.660 157.264,228.387 157.393,225.285 156.873 C 222.589 156.422,218.935 156.122,210.404 155.653 L 205.809 155.400 204.904 153.400 C 202.527 148.147,203.861 147.929,193.044 155.335 C 192.188 155.921,190.939 156.400,190.268 156.400 C 189.597 156.400,188.047 156.572,186.824 156.783 C 185.601 156.994,183.340 157.368,181.800 157.615 C 158.699 161.317,140.379 169.495,125.000 182.971 C 121.183 186.316,116.503 190.993,114.994 192.973 C 114.029 194.238,113.700 194.400,112.097 194.400 C 111.103 194.400,108.289 194.587,105.845 194.816 C 94.916 195.840,87.773 196.300,87.458 196.001 C 87.269 195.822,87.413 193.640,87.778 191.138 C 91.141 168.095,89.474 158.819,80.769 152.135 C 78.381 150.302,77.521 150.020,73.420 149.727 C 71.215 149.569,70.294 149.290,68.970 148.379 C 65.502 145.993,51.000 144.660,50.233 146.657 C 49.903 147.519,49.797 147.462,53.009 148.143 C 61.188 149.875,65.698 155.119,67.417 164.896 C 68.180 169.237,67.791 169.552,65.095 166.776 C 55.311 156.702,46.575 155.271,38.941 162.491 C 35.034 166.186,31.846 173.224,33.387 174.753 C 33.988 175.349,34.295 175.260,37.319 173.605 C 41.196 171.484,45.492 171.078,48.551 172.543 C 50.080 173.275,55.200 177.881,55.200 178.524 C 55.200 178.705,55.632 179.426,56.161 180.127 C 58.517 183.251,62.400 191.177,62.400 192.864 C 62.400 193.243,62.559 193.651,62.754 193.771 C 62.949 193.892,63.204 194.487,63.321 195.095 C 63.438 195.703,63.728 196.920,63.965 197.800 C 68.673 215.273,63.384 230.800,52.724 230.800 C 50.361 230.800,50.000 230.896,50.000 231.525 C 50.000 232.148,51.939 234.000,52.592 234.000 C 52.715 234.000,53.529 234.450,54.400 235.000 C 56.312 236.207,59.874 236.353,63.742 235.384 C 73.757 232.874,80.423 225.953,83.181 215.200 L 83.848 212.600 87.624 212.340 C 89.701 212.197,96.438 211.869,102.595 211.613 L 113.789 211.146 114.477 211.995 C 114.855 212.462,116.027 213.310,117.082 213.878 C 119.689 215.284,126.764 218.800,126.985 218.800 C 127.084 218.800,128.297 219.320,129.682 219.955 C 134.149 222.003,134.990 222.346,139.632 224.012 C 142.144 224.914,144.560 225.808,145.000 226.000 C 145.440 226.192,147.150 226.744,148.800 227.227 C 150.450 227.710,152.520 228.330,153.400 228.604 C 157.045 229.738,160.732 230.749,162.800 231.180 C 164.010 231.433,165.720 231.796,166.600 231.987 C 169.446 232.606,175.718 233.810,178.077 234.190 C 179.619 234.438,179.597 234.407,185.400 244.333 C 185.620 244.709,186.160 245.554,186.600 246.210 C 187.040 246.866,187.580 247.695,187.800 248.050 C 188.020 248.406,188.963 249.788,189.896 251.121 C 191.254 253.062,191.722 254.207,192.247 256.872 C 192.607 258.702,193.058 260.371,193.251 260.580 C 193.443 260.789,193.600 261.226,193.600 261.552 C 193.600 262.235,197.151 269.335,198.825 272.001 C 199.448 272.992,200.866 274.496,201.978 275.344 C 205.009 277.656,205.551 277.159,194.309 282.379 C 192.388 283.271,190.730 284.000,190.624 284.000 C 190.518 284.000,188.759 284.773,186.715 285.717 C 184.672 286.661,181.778 287.966,180.283 288.617 C 174.461 291.153,169.609 298.329,167.448 307.600 C 165.936 314.083,165.831 315.134,165.871 323.400 C 165.904 330.386,166.053 332.435,166.756 335.572 C 167.220 337.646,167.600 339.758,167.600 340.265 C 167.600 344.203,173.980 351.966,179.392 354.614 C 185.308 357.508,195.132 357.590,200.101 354.787 C 200.487 354.570,202.197 354.206,203.901 353.979 C 211.355 352.988,215.826 349.760,218.126 343.710 C 218.526 342.660,219.201 341.030,219.626 340.089 C 220.472 338.219,220.741 332.258,220.000 331.800 C 219.780 331.664,219.600 331.283,219.600 330.953 C 219.600 330.622,218.887 328.878,218.016 327.076 C 214.161 319.102,209.922 317.965,207.008 324.123 C 206.171 325.892,205.909 325.730,205.195 323.000 C 204.058 318.657,197.305 304.057,195.127 301.234 C 194.358 300.238,195.520 298.811,197.105 298.803 C 197.383 298.801,197.923 298.623,198.305 298.406 C 199.291 297.847,206.541 294.802,206.889 294.801 C 207.048 294.800,208.218 294.331,209.489 293.758 C 214.181 291.642,215.078 291.258,218.800 289.776 C 220.890 288.944,222.771 288.114,222.980 287.932 C 223.537 287.446,225.000 287.526,227.125 288.158 C 235.593 290.680,252.128 290.356,262.400 287.467 C 265.899 286.483,266.940 286.070,271.886 283.704 C 275.330 282.058,275.092 282.004,277.486 284.975 C 279.071 286.942,279.718 287.431,281.245 287.820 L 283.090 288.289 285.645 286.294 C 289.154 283.555,291.054 282.387,293.400 281.528 C 294.500 281.126,295.460 280.617,295.533 280.398 C 295.763 279.713,296.368 279.950,298.517 281.564 C 303.372 285.210,307.389 286.440,315.800 286.856 C 331.519 287.633,337.069 290.792,337.875 299.420 C 338.294 303.912,338.097 303.867,345.400 301.128 C 351.875 298.699,351.709 298.936,350.806 293.420 C 349.996 288.473,345.666 282.699,341.322 280.773 C 335.241 278.076,334.311 277.921,322.200 277.583 C 309.021 277.215,305.295 276.294,300.637 272.251 L 299.075 270.895 300.024 270.387 C 301.115 269.803,315.365 270.082,319.200 270.762 C 320.410 270.976,322.750 271.362,324.400 271.620 C 326.050 271.877,328.840 272.520,330.600 273.048 C 332.360 273.576,334.520 274.204,335.400 274.444 C 336.280 274.685,337.990 275.197,339.200 275.584 C 340.410 275.971,342.210 276.532,343.200 276.831 C 344.190 277.130,345.450 277.604,346.000 277.885 C 348.883 279.357,349.628 278.570,352.558 270.960 C 354.655 265.511,354.637 265.095,352.281 264.506 C 351.357 264.275,349.250 263.718,347.600 263.268 C 345.950 262.819,342.440 262.073,339.800 261.611 C 337.160 261.149,334.025 260.597,332.833 260.385 C 330.022 259.885,308.069 259.899,303.400 260.403 C 292.837 261.545,293.174 261.672,296.644 257.863 C 305.515 248.126,312.477 232.692,315.618 215.800 C 315.864 214.480,316.251 212.590,316.480 211.600 C 318.314 203.646,319.435 184.410,318.882 170.378 L 318.476 160.069 317.009 156.735 C 308.071 136.424,295.353 122.848,276.600 113.602 C 272.860 111.757,269.710 110.148,269.600 110.024 C 269.209 109.586,266.828 108.000,266.561 108.000 C 266.136 108.000,260.688 103.739,259.841 102.745 C 258.508 101.179,257.848 95.989,258.900 95.338 C 260.011 94.651,266.668 95.327,269.400 96.403 C 269.840 96.577,271.550 97.122,273.200 97.615 C 278.301 99.138,288.957 104.033,292.462 106.464 C 293.046 106.869,293.639 107.200,293.780 107.200 C 295.102 107.200,314.954 122.783,316.200 124.799 C 316.986 126.071,327.200 117.440,327.200 115.504 C 327.200 113.312,309.346 101.527,299.800 97.417 C 298.920 97.038,297.750 96.495,297.200 96.209 C 295.581 95.369,291.265 93.719,287.417 92.468 C 283.089 91.062,283.012 90.912,285.688 89.097 C 288.500 87.191,291.336 84.458,294.349 80.748 C 301.847 71.517,310.341 68.733,317.151 73.274 C 319.927 75.125,320.293 74.868,322.103 69.800 C 324.891 61.996,324.891 61.997,321.650 59.898 C 311.929 53.604,298.036 58.854,289.099 72.200 C 283.551 80.486,276.444 85.157,269.333 85.190 C 266.673 85.203,266.000 84.923,266.000 83.806 C 266.000 82.381,265.253 82.075,261.391 81.913 C 256.782 81.721,256.946 81.875,256.610 77.400 C 255.892 67.825,250.715 61.321,240.311 56.926 C 238.930 56.342,237.629 55.715,237.420 55.533 C 237.211 55.350,236.744 55.200,236.381 55.200 C 236.019 55.200,235.147 54.913,234.443 54.561 C 230.263 52.476,217.723 51.379,211.567 52.559 M203.379 73.984 C 206.927 76.670,209.224 78.837,208.966 79.255 C 208.716 79.660,182.663 79.730,182.260 79.327 C 181.790 78.857,189.705 75.075,195.600 72.953 C 199.468 71.560,200.327 71.674,203.379 73.984 " stroke="none" fill="#040404" fill-rule="evenodd"></path></g></svg>